<?xml version="1.0" encoding="UTF-8" standalone="no"?>
<!DOCTYPE svg PUBLIC "-//W3C//DTD SVG 1.1//EN" "http://www.w3.org/Graphics/SVG/1.1/DTD/svg11.dtd">
<svg version="1.1" xmlns="http://www.w3.org/2000/svg" xmlns:xlink="http://www.w3.org/1999/xlink" preserveAspectRatio="xMidYMid meet" viewBox="0 0 220 220" width="220" height="220"><defs><path d="M160 176.61L206.29 218.21L26.38 218.21L66.23 176.61L160 176.61Z" id="aOvYoFaPg"></path><linearGradient id="gradientbDuIVBA8" gradientUnits="userSpaceOnUse" x1="116.34" y1="243.61" x2="116.34" y2="168.02"><stop style="stop-color: #b3b3b3;stop-opacity: 1" offset="0.7105755%"></stop><stop style="stop-color: #b1b1b1;stop-opacity: 1" offset="28.360000000000003%"></stop><stop style="stop-color: #a9a9a9;stop-opacity: 1" offset="43.480000000000004%"></stop><stop style="stop-color: #9b9b9b;stop-opacity: 1" offset="55.58%"></stop><stop style="stop-color: #878787;stop-opacity: 1" offset="66.08000000000001%"></stop><stop style="stop-color: #6e6e6e;stop-opacity: 1" offset="75.53999999999999%"></stop><stop style="stop-color: #4f4f4f;stop-opacity: 1" offset="84.26%"></stop><stop style="stop-color: #2b2b2b;stop-opacity: 1" offset="92.24%"></stop><stop style="stop-color: #020202;stop-opacity: 1" offset="99.75%"></stop><stop style="stop-color: #000000;stop-opacity: 1" offset="100%"></stop></linearGradient><path d="M220.49 97.18C220.49 149.56 172.05 192.02 112.31 192.02C52.56 192.02 4.13 149.56 4.13 97.18C4.13 44.79 52.56 2.33 112.31 2.33C172.05 2.33 220.49 44.79 220.49 97.18Z" id="aJxvp0Los"></path><linearGradient id="gradientdWXtTq3ez" gradientUnits="userSpaceOnUse" x1="65.59" y1="160.86" x2="217.71" y2="-46.49"><stop style="stop-color: #b3b3b3;stop-opacity: 1" offset="0.7105755%"></stop><stop style="stop-color: #b1b1b1;stop-opacity: 1" offset="28.360000000000003%"></stop><stop style="stop-color: #a9a9a9;stop-opacity: 1" offset="43.480000000000004%"></stop><stop style="stop-color: #9b9b9b;stop-opacity: 1" offset="55.58%"></stop><stop style="stop-color: #878787;stop-opacity: 1" offset="66.08000000000001%"></stop><stop style="stop-color: #6e6e6e;stop-opacity: 1" offset="75.53999999999999%"></stop><stop style="stop-color: #4f4f4f;stop-opacity: 1" offset="84.26%"></stop><stop style="stop-color: #2b2b2b;stop-opacity: 1" offset="92.24%"></stop><stop style="stop-color: #020202;stop-opacity: 1" offset="99.75%"></stop><stop style="stop-color: #000000;stop-opacity: 1" offset="100%"></stop></linearGradient><path d="M174.2 96.33C174.2 125.76 147.56 149.62 114.7 149.62C81.83 149.62 55.19 125.76 55.19 96.33C55.19 66.89 81.83 43.03 114.7 43.03C147.56 43.03 174.2 66.89 174.2 96.33Z" id="b1OTcQkv9p"></path><path d="M134.84 57.79C130.06 57.79 126.17 61.67 126.17 66.46C126.17 71.25 130.06 75.13 134.84 75.13C139.63 75.13 143.51 71.25 143.51 66.46C143.51 61.67 139.63 57.79 134.84 57.79Z" id="a3hBULQTJ"></path><path d="M152.18 70.91C149.85 70.91 147.96 72.8 147.96 75.13C147.96 77.46 149.85 79.34 152.18 79.34C154.51 79.34 156.39 77.46 156.39 75.13C156.39 72.8 154.51 70.91 152.18 70.91Z" id="a3aOpwrUHX"></path></defs><g><g><g><use xlink:href="#aOvYoFaPg" opacity="1" fill="url(#gradientbDuIVBA8)"></use><g><use xlink:href="#aOvYoFaPg" opacity="1" fill-opacity="0" stroke="#ffffff" stroke-width="5" stroke-opacity="1"></use></g></g><g><use xlink:href="#aJxvp0Los" opacity="1" fill="url(#gradientdWXtTq3ez)"></use><g><use xlink:href="#aJxvp0Los" opacity="1" fill-opacity="0" stroke="#ffffff" stroke-width="5" stroke-opacity="1"></use></g></g><g><use xlink:href="#b1OTcQkv9p" opacity="1" fill="#65b4ca" fill-opacity="1"></use><g><use xlink:href="#b1OTcQkv9p" opacity="1" fill-opacity="0" stroke="#000000" stroke-width="1" stroke-opacity="0"></use></g></g><g><use xlink:href="#a3hBULQTJ" opacity="1" fill="#ffffff" fill-opacity="1"></use><g><use xlink:href="#a3hBULQTJ" opacity="1" fill-opacity="0" stroke="#ffffff" stroke-width="1" stroke-opacity="1"></use></g></g><g><use xlink:href="#a3aOpwrUHX" opacity="1" fill="#ffffff" fill-opacity="1"></use><g><use xlink:href="#a3aOpwrUHX" opacity="1" fill-opacity="0" stroke="#ffffff" stroke-width="1" stroke-opacity="1"></use></g></g></g></g></svg>